<svg xmlns="http://www.w3.org/2000/svg" width="297" height="215" viewBox="0 0 297 215">
<g>
<path d="M 68.55 102.08 C67.10,103.48 65.28,103.18 64.61,101.42 C63.13,97.58 64.03,82.23 66.10,75.92 C68.76,67.81 69.45,66.52 74.07,60.95 C79.21,54.76 86.10,51.19 95.17,50.01 C103.32,48.96 173.30,48.66 179.33,49.66 C183.11,50.28 183.16,50.34 182.53,53.89 C181.58,59.22 177.04,66.03 172.14,69.47 L 167.83 72.50 L 132.67 73.00 C107.04,73.36 96.90,73.84 95.30,74.76 C91.60,76.88 90.00,80.13 90.00,85.53 C90.00,88.33 89.44,91.34 88.75,92.22 C88.06,93.11 83.45,95.48 78.50,97.50 C73.55,99.51 69.07,101.58 68.55,102.08 ZM 228.96 187.07 C228.04,188.79 226.78,189.00 217.13,189.00 C211.19,189.00 206.03,188.70 205.67,188.33 C205.30,187.97 205.00,171.54 205.00,151.83 L 205.00 116.00 L 216.75 103.50 C223.21,96.63 228.84,91.00 229.25,91.00 C230.45,91.00 230.17,184.81 228.96,187.07 ZM 73.54 188.37 C69.58,190.19 62.43,190.98 57.92,190.08 C51.98,188.90 44.16,183.09 41.36,177.77 C39.68,174.59 41.46,161.93 44.49,155.50 C48.44,147.12 55.35,138.14 56.46,139.94 C56.79,140.47 56.10,141.41 54.94,142.03 C53.78,142.65 53.06,143.39 53.34,143.67 C53.62,143.95 52.95,146.28 51.84,148.84 C50.39,152.21 50.01,154.61 50.47,157.50 C51.47,163.82 53.39,166.00 57.97,166.00 C64.04,166.00 65.16,163.65 64.37,152.51 L 63.74 143.47 L 67.68 139.91 C71.95,136.05 86.31,129.52 88.60,130.40 C89.72,130.83 90.00,134.05 90.00,146.33 C90.00,163.07 89.14,169.61 86.04,176.41 C83.95,181.01 78.76,185.97 73.54,188.37 ZM 193.76 158.25 L 193.50 188.50 L 182.45 188.78 C176.37,188.94 171.08,188.75 170.70,188.36 C170.31,187.98 170.00,179.53 170.01,169.58 L 170.02 151.50 L 181.26 139.73 C187.44,133.25 192.84,127.96 193.26,127.98 C193.69,127.99 193.91,141.61 193.76,158.25 ZM 123.96 187.55 C123.04,188.65 120.15,189.00 111.85,189.00 C101.07,189.00 100.94,188.97 99.98,186.43 C98.59,182.79 98.82,165.95 100.29,163.37 C100.95,162.20 103.05,159.95 104.94,158.37 C107.93,155.88 109.21,155.50 114.66,155.50 C124.07,155.50 124.43,156.10 124.83,172.59 C125.06,182.07 124.80,186.54 123.96,187.55 Z" fill="rgb(21,48,78)"/>
<path d="M 102.55 151.75 C100.02,153.54 97.67,155.00 97.35,155.00 C97.02,155.00 97.04,153.55 97.40,151.77 C98.30,147.24 102.43,141.65 107.33,138.33 C111.78,135.31 114.75,135.08 137.00,136.06 C148.20,136.55 148.62,136.26 169.17,113.31 C175.40,106.35 182.07,99.00 184.00,96.96 C185.93,94.93 190.20,90.19 193.50,86.44 C211.84,65.57 213.00,64.20 213.00,63.42 C213.00,63.10 211.76,61.56 210.25,59.99 C202.82,52.26 202.57,51.89 204.07,50.95 C204.86,50.46 208.20,49.40 211.50,48.59 C214.80,47.78 220.20,46.40 223.50,45.51 C226.80,44.62 231.07,43.52 233.00,43.06 C234.93,42.61 238.98,41.53 242.00,40.66 C245.02,39.80 248.40,38.84 249.50,38.53 C250.60,38.23 252.13,38.39 252.90,38.89 C254.39,39.86 254.32,40.29 248.90,66.50 C247.76,72.00 246.52,79.08 246.13,82.24 C245.75,85.39 244.88,88.52 244.22,89.18 C243.00,90.40 242.85,90.29 233.85,81.75 C232.83,80.79 231.60,80.00 231.11,80.00 C230.62,80.00 220.84,89.56 209.37,101.25 C169.55,141.86 162.71,148.41 158.00,150.47 C155.52,151.56 153.22,152.84 152.88,153.33 C151.68,155.02 139.54,155.34 135.91,153.78 C127.49,150.14 121.10,148.59 114.33,148.55 C107.82,148.50 106.74,148.80 102.55,151.75 ZM 52.42 147.42 C53.17,145.47 53.57,143.90 53.34,143.67 C53.06,143.39 53.78,142.65 54.94,142.03 C56.10,141.41 56.79,140.47 56.46,139.94 C55.35,138.14 48.44,147.12 44.49,155.50 C41.46,161.93 39.68,174.59 41.36,177.77 C41.47,177.99 41.60,178.22 41.73,178.44 C39.52,175.37 37.84,171.99 37.03,168.64 C35.82,163.58 35.87,161.90 37.53,153.47 C38.56,148.26 39.76,144.00 40.20,144.00 C40.64,144.00 41.00,143.42 41.00,142.71 C41.00,141.19 43.56,136.11 47.19,130.43 C49.98,126.07 61.60,114.00 63.01,114.00 C63.48,114.00 64.46,113.40 65.20,112.66 C67.47,110.39 74.69,106.12 77.42,105.43 C78.84,105.07 80.00,104.43 80.00,104.01 C80.00,103.58 81.24,103.00 82.75,102.73 C85.39,102.25 90.26,100.64 94.50,98.86 C99.73,96.65 150.36,93.87 156.62,95.44 C159.10,96.06 159.22,96.37 158.65,100.53 C157.70,107.49 154.31,112.43 147.50,116.81 C143.68,119.26 142.61,119.41 123.50,120.15 C104.02,120.90 96.77,121.66 86.50,123.98 C71.07,127.48 57.49,137.36 52.42,147.42 ZM 158.78 174.13 L 158.50 189.50 L 147.40 189.78 C138.76,190.00 136.03,189.75 135.12,188.64 C134.31,187.67 134.03,183.15 134.22,174.36 L 134.50 161.50 L 143.00 160.88 C147.68,160.54 153.20,159.92 155.28,159.51 L 159.05 158.77 ZM 49.13 185.96 C52.01,187.99 55.16,189.53 57.92,190.08 C58.07,190.11 58.23,190.14 58.40,190.17 C58.19,190.13 57.99,190.10 57.80,190.06 C54.91,189.49 51.92,188.02 49.13,185.96 ZM 50.72 152.03 C50.29,153.89 50.19,155.73 50.47,157.50 C50.17,155.60 50.23,153.92 50.72,152.03 Z" fill="rgb(77,193,202)"/>
<path d="M 297.00 215.00 L 295.50 215.00 L 295.24 108.86 C295.05,31.01 295.28,2.36 296.11,1.36 C297.07,0.21 274.00,0.00 148.62,0.00 L 297.00 0.00 Z" fill="rgb(165,193,204)"/>
<path d="M 0.00 107.50 L 0.00 0.00 L 148.62 0.00 C274.00,0.00 297.07,0.21 296.11,1.36 C295.28,2.36 295.05,31.01 295.24,108.86 L 295.50 215.00 L 147.75 215.00 L 0.00 215.00 L 0.00 107.50 ZM 73.54 188.37 C78.76,185.97 83.95,181.01 86.04,176.41 C89.14,169.61 90.00,163.07 90.00,146.33 C90.00,134.05 89.72,130.83 88.60,130.40 C86.31,129.52 71.95,136.05 67.68,139.91 L 63.74 143.47 L 64.37 152.51 C65.16,163.65 64.04,166.00 57.97,166.00 C53.39,166.00 51.47,163.82 50.47,157.50 C48.47,144.81 65.83,128.67 86.50,123.98 C96.77,121.66 104.02,120.90 123.50,120.15 C142.61,119.41 143.68,119.26 147.50,116.81 C154.31,112.43 157.70,107.49 158.65,100.53 C159.22,96.37 159.10,96.06 156.62,95.44 C150.36,93.87 99.73,96.65 94.50,98.86 C90.26,100.64 85.39,102.25 82.75,102.73 C81.24,103.00 80.00,103.58 80.00,104.01 C80.00,104.43 78.84,105.07 77.42,105.43 C74.69,106.12 67.47,110.39 65.20,112.66 C64.46,113.40 63.48,114.00 63.01,114.00 C61.60,114.00 49.98,126.07 47.19,130.43 C43.56,136.11 41.00,141.19 41.00,142.71 C41.00,143.42 40.64,144.00 40.20,144.00 C39.76,144.00 38.56,148.26 37.53,153.47 C35.87,161.90 35.82,163.58 37.03,168.64 C39.36,178.34 49.04,188.33 57.80,190.06 C62.42,190.97 69.55,190.21 73.54,188.37 ZM 158.78 174.13 L 159.05 158.77 L 155.28 159.51 C153.20,159.92 147.68,160.54 143.00,160.88 L 134.50 161.50 L 134.22 174.36 C134.03,183.15 134.31,187.67 135.12,188.64 C136.03,189.75 138.76,190.00 147.40,189.78 L 158.50 189.50 L 158.78 174.13 ZM 123.96 187.55 C124.80,186.54 125.06,182.07 124.83,172.59 C124.43,156.10 124.07,155.50 114.66,155.50 C109.21,155.50 107.93,155.88 104.94,158.37 C103.05,159.95 100.95,162.20 100.29,163.37 C98.82,165.95 98.59,182.79 99.98,186.43 C100.94,188.97 101.07,189.00 111.85,189.00 C120.15,189.00 123.04,188.65 123.96,187.55 ZM 193.76 158.25 C193.91,141.61 193.69,127.99 193.26,127.98 C192.84,127.96 187.44,133.25 181.26,139.73 L 170.02 151.50 L 170.01 169.58 C170.00,179.53 170.31,187.98 170.70,188.36 C171.08,188.75 176.37,188.94 182.45,188.78 L 193.50 188.50 L 193.76 158.25 ZM 228.96 187.07 C230.17,184.81 230.45,91.00 229.25,91.00 C228.84,91.00 223.21,96.63 216.75,103.50 L 205.00 116.00 L 205.00 151.83 C205.00,171.54 205.30,187.97 205.67,188.33 C206.03,188.70 211.19,189.00 217.13,189.00 C226.78,189.00 228.04,188.79 228.96,187.07 ZM 102.55 151.75 C106.74,148.80 107.82,148.50 114.33,148.55 C121.10,148.59 127.49,150.14 135.91,153.78 C139.54,155.34 151.68,155.02 152.88,153.33 C153.22,152.84 155.52,151.56 158.00,150.47 C162.71,148.41 169.55,141.86 209.37,101.25 C220.84,89.56 230.62,80.00 231.11,80.00 C231.60,80.00 232.83,80.79 233.85,81.75 C242.85,90.29 243.00,90.40 244.22,89.18 C244.88,88.52 245.75,85.39 246.13,82.24 C246.52,79.08 247.76,72.00 248.90,66.50 C254.32,40.29 254.39,39.86 252.90,38.89 C252.13,38.39 250.60,38.23 249.50,38.53 C248.40,38.84 245.02,39.80 242.00,40.66 C238.98,41.53 234.93,42.61 233.00,43.06 C231.07,43.52 226.80,44.62 223.50,45.51 C220.20,46.40 214.80,47.78 211.50,48.59 C208.20,49.40 204.86,50.46 204.07,50.95 C202.57,51.89 202.82,52.26 210.25,59.99 C211.76,61.56 213.00,63.10 213.00,63.42 C213.00,64.20 211.84,65.57 193.50,86.44 C190.20,90.19 185.93,94.93 184.00,96.96 C182.07,99.00 175.40,106.35 169.17,113.31 C148.62,136.26 148.20,136.55 137.00,136.06 C114.75,135.08 111.78,135.31 107.33,138.33 C102.43,141.65 98.30,147.24 97.40,151.77 C97.04,153.55 97.02,155.00 97.35,155.00 C97.67,155.00 100.02,153.54 102.55,151.75 ZM 68.55 102.08 C69.07,101.58 73.55,99.51 78.50,97.50 C83.45,95.48 88.06,93.11 88.75,92.22 C89.44,91.34 90.00,88.33 90.00,85.53 C90.00,80.13 91.60,76.88 95.30,74.76 C96.90,73.84 107.04,73.36 132.67,73.00 L 167.83 72.50 L 172.14 69.47 C177.04,66.03 181.58,59.22 182.53,53.89 C183.16,50.34 183.11,50.28 179.33,49.66 C173.30,48.66 103.32,48.96 95.17,50.01 C86.10,51.19 79.21,54.76 74.07,60.95 C69.45,66.52 68.76,67.81 66.10,75.92 C64.03,82.23 63.13,97.58 64.61,101.42 C65.28,103.18 67.10,103.48 68.55,102.08 Z" fill="rgb(253,254,254)"/>
</g>
</svg>